<svg aria-hidden="true" style="position: absolute; width: 0; height: 0; overflow: hidden;" version="1.1"
     xmlns="http://www.w3.org/2000/svg" xmlns:xlink="http://www.w3.org/1999/xlink">
    <defs>
        <symbol id="mail" viewBox="0 0 31 32">
            <path d="M25.6 5.76h-20.48c-1.408 0-2.547 1.152-2.547 2.56l-0.013 15.36c0 1.408 1.152 2.56 2.56 2.56h20.48c1.408 0 2.56-1.152 2.56-2.56v-15.36c0-1.408-1.152-2.56-2.56-2.56zM25.6 10.88l-10.24 6.4-10.24-6.4v-2.56l10.24 6.4 10.24-6.4v2.56z"></path>
        </symbol>
        <symbol id="phone" viewBox="0 0 32 32">
            <path d="M8.030 14.297c2.133 3.983 5.57 7.234 9.763 9.275l3.259-3.096c0.4-0.38 0.993-0.507 1.511-0.338 1.659 0.521 3.452 0.802 5.289 0.802 0.815 0 1.481 0.633 1.481 1.407v4.912c0 0.774-0.667 1.407-1.481 1.407-13.911 0-25.185-10.71-25.185-23.926 0-0.774 0.667-1.407 1.481-1.407h5.185c0.815 0 1.481 0.633 1.481 1.407 0 1.759 0.296 3.448 0.844 5.024 0.163 0.493 0.044 1.041-0.37 1.436l-3.259 3.096z"></path>
        </symbol>
        <symbol id="location" viewBox="0 0 31 32">
            <path d="M15.36 15.424c-0.849 0-1.663-0.303-2.263-0.844s-0.937-1.273-0.937-2.036c0-0.764 0.337-1.496 0.937-2.036s1.414-0.844 2.263-0.844 1.663 0.303 2.263 0.844c0.6 0.54 0.937 1.273 0.937 2.036 0 0.378-0.083 0.753-0.244 1.102s-0.397 0.667-0.694 0.934c-0.297 0.267-0.65 0.48-1.038 0.624s-0.804 0.219-1.225 0.219zM15.36 4.48c-2.376 0-4.655 0.85-6.336 2.362s-2.624 3.563-2.624 5.702c0 6.048 8.96 14.976 8.96 14.976s8.96-8.928 8.96-14.976c0-2.139-0.944-4.19-2.624-5.702s-3.959-2.362-6.336-2.362z"></path>
        </symbol>
        <symbol id="basket" viewBox="0 0 33 32">
            <path d="M32.39 9.697c-0.092-0.115-0.214-0.209-0.357-0.274s-0.3-0.099-0.46-0.099h-21.33l-1.615-4.901c-0.633-1.93-2.138-2.138-2.755-2.138h-4.305c-0.552 0-0.998 0.393-0.998 0.878s0.447 0.878 0.998 0.878h4.305c0.136 0 0.552 0 0.835 0.862l5.554 17.966c0.121 0.379 0.513 0.641 0.961 0.641h13.567c0.421 0 0.797-0.232 0.939-0.581l4.782-12.43c0.11-0.269 0.064-0.569-0.122-0.802v0zM26.089 21.755h-12.107l-3.177-10.674h19.35l-4.066 10.674zM24.11 25.291c-1.388 0-2.513 0.99-2.513 2.211s1.125 2.211 2.513 2.211c1.388 0 2.513-0.99 2.513-2.211s-1.125-2.211-2.513-2.211zM15.064 25.291c-1.388 0-2.513 0.99-2.513 2.211s1.125 2.211 2.513 2.211c1.388 0 2.513-0.99 2.513-2.211s-1.125-2.211-2.513-2.211z"></path>
        </symbol>
        <symbol id="instagram" viewBox="0 0 32 32">
            <path d="M17.553 0.889c1.7 0.005 2.563 0.014 3.308 0.035l0.293 0.011c0.338 0.012 0.672 0.027 1.076 0.045 1.608 0.076 2.705 0.329 3.667 0.703 0.997 0.384 1.837 0.904 2.678 1.742 0.768 0.755 1.363 1.669 1.742 2.678 0.373 0.963 0.627 2.060 0.703 3.669 0.018 0.402 0.033 0.736 0.045 1.076l0.009 0.293c0.023 0.743 0.032 1.606 0.035 3.306l0.002 1.127v1.98c0.004 1.102-0.008 2.204-0.035 3.306l-0.009 0.293c-0.012 0.34-0.027 0.674-0.045 1.076-0.076 1.609-0.332 2.705-0.704 3.669-0.378 1.009-0.973 1.923-1.742 2.678-0.756 0.768-1.669 1.363-2.678 1.742-0.962 0.373-2.059 0.627-3.667 0.703-0.359 0.017-0.717 0.032-1.076 0.045l-0.293 0.009c-0.745 0.021-1.608 0.032-3.308 0.035l-3.105 0.002c-1.103 0.004-2.205-0.008-3.308-0.035l-0.293-0.009c-0.359-0.014-0.717-0.029-1.076-0.047-1.608-0.076-2.705-0.329-3.669-0.703-1.008-0.379-1.922-0.973-2.676-1.742-0.769-0.755-1.364-1.669-1.744-2.678-0.373-0.962-0.627-2.060-0.703-3.669-0.017-0.358-0.032-0.717-0.045-1.076l-0.008-0.293c-0.028-1.102-0.040-2.204-0.038-3.306v-3.107c-0.004-1.102 0.007-2.204 0.033-3.306l0.011-0.293c0.012-0.34 0.027-0.674 0.045-1.076 0.076-1.609 0.329-2.705 0.703-3.669 0.379-1.010 0.976-1.924 1.747-2.678 0.754-0.768 1.667-1.363 2.675-1.742 0.964-0.373 2.060-0.627 3.669-0.703 0.402-0.018 0.737-0.033 1.076-0.045l0.293-0.009c1.102-0.027 2.204-0.038 3.306-0.035l3.107-0.001zM16 8.444c-2.004 0-3.925 0.796-5.342 2.213s-2.213 3.339-2.213 5.343 0.796 3.925 2.213 5.343c1.417 1.417 3.339 2.213 5.342 2.213s3.925-0.796 5.342-2.213c1.417-1.417 2.213-3.339 2.213-5.343s-0.796-3.925-2.213-5.343c-1.417-1.417-3.339-2.213-5.342-2.213zM16 11.466c0.595-0 1.185 0.117 1.735 0.345s1.050 0.562 1.471 0.982c0.421 0.421 0.755 0.921 0.983 1.471s0.345 1.139 0.345 1.735c0 0.595-0.117 1.185-0.345 1.735s-0.561 1.050-0.982 1.471c-0.421 0.421-0.921 0.755-1.471 0.983s-1.139 0.345-1.735 0.345c-1.202 0-2.355-0.478-3.205-1.328s-1.328-2.003-1.328-3.206 0.478-2.355 1.328-3.206c0.85-0.85 2.003-1.328 3.205-1.328zM23.935 6.178c-0.501 0-0.981 0.199-1.336 0.553s-0.553 0.835-0.553 1.336c0 0.501 0.199 0.981 0.553 1.336s0.835 0.553 1.336 0.553c0.501 0 0.981-0.199 1.336-0.553s0.553-0.835 0.553-1.336c0-0.501-0.199-0.981-0.553-1.336s-0.835-0.553-1.336-0.553z"></path>
        </symbol>
        <symbol id="facebook" viewBox="0 0 32 32">
            <path d="M31.111 16.038c0-8.362-6.77-15.149-15.111-15.149s-15.111 6.787-15.111 15.149c0 7.332 5.198 13.437 12.089 14.846v-10.301h-3.022v-4.545h3.022v-3.787c0-2.924 2.372-5.302 5.289-5.302h3.778v4.545h-3.022c-0.831 0-1.511 0.682-1.511 1.515v3.030h4.533v4.545h-4.533v10.529c7.631-0.757 13.6-7.211 13.6-15.073z"></path>
        </symbol>
        <symbol id="tiktok-accent" viewBox="0 0 32 32">
            <path d="M16 0.444c8.591 0 15.556 6.964 15.556 15.556s-6.964 15.556-15.556 15.556c-8.591 0-15.556-6.964-15.556-15.556s6.964-15.556 15.556-15.556z"></path>
            <path fill="#3F352C"
                  d="M20.172 10.201c-0.62-0.732-0.962-1.673-0.962-2.646h-2.803v11.635c-0.022 0.63-0.279 1.226-0.717 1.663s-1.023 0.682-1.632 0.682c-1.288 0-2.358-1.088-2.358-2.44 0-1.614 1.506-2.824 3.057-2.327v-2.965c-3.129-0.432-5.868 2.083-5.868 5.292 0 3.124 2.503 5.348 5.161 5.348 2.848 0 5.161-2.393 5.161-5.348v-5.902c1.137 0.844 2.501 1.297 3.9 1.295v-2.899c0 0-1.705 0.084-2.939-1.389z"></path>
        </symbol>
        <symbol id="tiktok-white" viewBox="0 0 32 32">
            <path d="M16 0.444c8.591 0 15.556 6.964 15.556 15.556s-6.964 15.556-15.556 15.556c-8.591 0-15.556-6.964-15.556-15.556s6.964-15.556 15.556-15.556z"></path>
            <path fill="#FFF"
                  d="M20.172 10.201c-0.62-0.732-0.962-1.673-0.962-2.646h-2.803v11.635c-0.022 0.63-0.279 1.226-0.717 1.663s-1.023 0.682-1.632 0.682c-1.288 0-2.358-1.088-2.358-2.44 0-1.614 1.506-2.824 3.057-2.327v-2.965c-3.129-0.432-5.868 2.083-5.868 5.292 0 3.124 2.503 5.348 5.161 5.348 2.848 0 5.161-2.393 5.161-5.348v-5.902c1.137 0.844 2.501 1.297 3.9 1.295v-2.899c0 0-1.705 0.084-2.939-1.389z"></path>
        </symbol>
        <symbol id="arrow-right-bottom" viewBox="0 0 32 32">
            <path d="M30.385 29.31c0 1.040-0.843 1.882-1.882 1.882h-16.941c-1.040 0-1.882-0.843-1.882-1.882s0.843-1.882 1.882-1.882h15.059v-15.059c0-1.040 0.843-1.882 1.882-1.882s1.882 0.843 1.882 1.882v16.941zM3.213 1.358l26.62 26.62-2.662 2.662-26.62-26.621 2.662-2.662z"></path>
        </symbol>
        <symbol id="caret-left" viewBox="0 0 32 32">
            <path fill="transparent" stroke-linejoin="miter" stroke-linecap="butt" stroke-miterlimit="4"
                  stroke-width="1.1852" d="M19.556 8.889l-7.704 7.111 7.704 7.111"></path>
        </symbol>
        <symbol id="caret-right" viewBox="0 0 32 32">
            <path fill="transparent" stroke-linejoin="miter" stroke-linecap="butt" stroke-miterlimit="4"
                  stroke-width="1.1852" d="M11.852 8.889l7.704 7.111-7.704 7.111"></path>
        </symbol>
        <symbol id="arrow-right" viewBox="0 0 72 32">
            <path d="M70.747 17.414c0.781-0.781 0.781-2.047 0-2.828l-12.728-12.728c-0.781-0.781-2.047-0.781-2.829 0s-0.781 2.047 0 2.828l11.314 11.314-11.314 11.314c-0.781 0.781-0.781 2.047 0 2.829s2.047 0.781 2.829 0l12.728-12.728zM0 18h69.333v-4h-69.333v4z"></path>
        </symbol>
        <symbol id="arrow-top" viewBox="0 0 19 32">
            <path d="M8.643 0.347c0.463-0.463 1.213-0.463 1.676 0l7.543 7.542c0.463 0.463 0.463 1.213 0 1.676s-1.213 0.463-1.676 0l-6.704-6.704-6.704 6.704c-0.463 0.463-1.213 0.463-1.676 0s-0.463-1.213 0-1.676l7.542-7.542zM8.296 32v-30.815h2.37v30.815h-2.37z"></path>
        </symbol>
        <symbol id="minus" viewBox="0 0 17 1">
            <line y1="0.5" x2="17" y2="0.5" stroke="black"/>
        </symbol>
        <symbol id="plus" viewBox="0 0 17 17">
            <line y1="8.5" x2="17" y2="8.5" stroke="black"/>
            <line x1="8.5" y1="17" x2="8.5" stroke="black"/>
        </symbol>
        <symbol id="close" viewBox="0 0 32 32">
            <path d="M4.163 29.333l-1.497-1.497 11.837-11.837-11.837-11.837 1.497-1.497 11.837 11.837 11.837-11.837 1.497 1.497-11.837 11.837 11.837 11.837-1.497 1.497-11.837-11.837-11.837 11.837z"></path>
        </symbol>
        <symbol id="arrow-right-small" viewBox="0 0 49 32">
            <path d="M48.442 17.509c0.833-0.833 0.833-2.184 0-3.017l-13.577-13.576c-0.833-0.833-2.184-0.833-3.017 0s-0.833 2.184 0 3.017l12.068 12.068-12.068 12.068c-0.833 0.833-0.833 2.184 0 3.017s2.184 0.833 3.017 0l13.577-13.576zM0 18.133h46.933v-4.267h-46.933v4.267z"></path>
        </symbol>
        <symbol id="filter" viewBox="0 0 33 32">
            <path fill="#bda18c" style="fill: var(--color1, transparent)" d="M0 0h33.185v32h-33.185v-32z"></path>
            <path fill="none" stroke="#000" style="stroke: var(--color2, #000)" stroke-linejoin="miter" stroke-linecap="round" stroke-miterlimit="10" stroke-width="1.1852" d="M30.815 15.999h-18.996M5.113 15.999h-2.743M5.113 15.999c0-0.897 0.353-1.757 0.982-2.391s1.481-0.99 2.37-0.99 1.742 0.356 2.37 0.99c0.629 0.634 0.982 1.494 0.982 2.391s-0.353 1.757-0.982 2.391c-0.629 0.634-1.481 0.99-2.37 0.99s-1.742-0.356-2.37-0.99c-0.629-0.634-0.982-1.494-0.982-2.391zM30.815 26.247h-8.838M21.977 26.247c0 0.897-0.354 1.758-0.983 2.392s-1.481 0.991-2.371 0.991c-0.889 0-1.741-0.358-2.37-0.992s-0.982-1.494-0.982-2.391M21.977 26.247c0-0.897-0.354-1.756-0.983-2.391s-1.481-0.99-2.371-0.99c-0.889 0-1.741 0.356-2.37 0.99s-0.982 1.494-0.982 2.391M15.272 26.247h-12.901M30.815 5.752h-4.774M19.336 5.752h-16.965M19.336 5.752c0-0.897 0.353-1.757 0.982-2.391s1.481-0.99 2.37-0.99c0.44 0 0.876 0.087 1.283 0.257s0.776 0.419 1.087 0.733c0.311 0.314 0.558 0.687 0.727 1.097s0.255 0.85 0.255 1.294c0 0.444-0.087 0.884-0.255 1.294s-0.415 0.783-0.727 1.097c-0.311 0.314-0.681 0.563-1.087 0.733s-0.843 0.257-1.283 0.257c-0.889 0-1.741-0.356-2.37-0.99s-0.982-1.494-0.982-2.391z"></path>
        </symbol>
        <symbol id="arrow-down" viewBox="0 0 52 32">
            <path fill="none" stroke="#fff" style="stroke: var(--color1, #fff)" stroke-linejoin="miter" stroke-linecap="butt" stroke-miterlimit="4" stroke-width="2.9091" d="M49.455 2.909l-23.273 26.182-23.273-26.182"></path>
        </symbol>
        <symbol id="success" viewBox="0 0 37 32">
            <path fill="transparent" stroke-linejoin="miter" stroke-linecap="butt" stroke-miterlimit="4" stroke-width="3.3684" d="M1.684 10.947l14.035 17.684 19.649-26.947"></path>
        </symbol>
        <symbol id="popup-success" viewBox="0 0 32 32">
            <path fill="#307d3c" style="fill: var(--color1, #307d3c)" d="M31.336 11.439c-0.010-0.033-0.022-0.066-0.035-0.098s-0.028-0.064-0.045-0.094c-0.016-0.031-0.034-0.061-0.054-0.089s-0.040-0.057-0.062-0.084c-0.022-0.027-0.045-0.053-0.070-0.077s-0.050-0.048-0.077-0.070c-0.027-0.022-0.055-0.043-0.084-0.062s-0.059-0.037-0.089-0.054c-0.031-0.017-0.062-0.031-0.094-0.045s-0.065-0.025-0.098-0.036c-0.033-0.010-0.067-0.019-0.101-0.026s-0.068-0.012-0.103-0.016c-0.035-0.003-0.070-0.005-0.104-0.005s-0.070 0.001-0.104 0.005c-0.035 0.003-0.069 0.008-0.103 0.015s-0.068 0.015-0.101 0.025c-0.033 0.010-0.066 0.021-0.099 0.035s-0.064 0.028-0.095 0.044c-0.031 0.016-0.061 0.034-0.090 0.053s-0.057 0.040-0.084 0.062c-0.027 0.022-0.053 0.045-0.078 0.069s-0.048 0.050-0.071 0.077c-0.022 0.027-0.043 0.055-0.063 0.083s-0.038 0.059-0.054 0.089-0.032 0.062-0.045 0.094c-0.014 0.032-0.026 0.065-0.036 0.098s-0.019 0.067-0.026 0.101c-0.007 0.034-0.013 0.068-0.016 0.103s-0.006 0.069-0.006 0.104c-0 0.035 0.001 0.070 0.004 0.104s0.008 0.069 0.014 0.103c0.006 0.034 0.014 0.068 0.024 0.102 0.078 0.26 0.147 0.521 0.21 0.785s0.117 0.529 0.163 0.796c0.047 0.267 0.086 0.535 0.117 0.804s0.054 0.539 0.069 0.809c0.015 0.271 0.023 0.541 0.022 0.812s-0.009 0.541-0.025 0.812c-0.016 0.27-0.041 0.54-0.073 0.809s-0.072 0.537-0.12 0.803c-0.048 0.267-0.103 0.532-0.167 0.795s-0.134 0.525-0.213 0.784c-0.079 0.259-0.165 0.516-0.258 0.77s-0.194 0.506-0.303 0.754c-0.108 0.248-0.224 0.493-0.346 0.735s-0.252 0.479-0.389 0.713c-0.136 0.234-0.28 0.464-0.43 0.689s-0.306 0.447-0.469 0.663c-0.163 0.216-0.332 0.428-0.507 0.635s-0.356 0.408-0.543 0.604c-0.187 0.196-0.38 0.387-0.578 0.571s-0.402 0.364-0.61 0.537c-0.208 0.173-0.422 0.339-0.64 0.5s-0.441 0.314-0.669 0.462c-0.227 0.147-0.459 0.288-0.694 0.422s-0.475 0.261-0.718 0.381c-0.243 0.12-0.489 0.232-0.739 0.338s-0.502 0.204-0.757 0.294c-0.255 0.091-0.513 0.174-0.773 0.25s-0.522 0.144-0.786 0.204c-0.264 0.060-0.53 0.113-0.797 0.158s-0.535 0.082-0.805 0.111c-0.269 0.029-0.539 0.050-0.81 0.064s-0.541 0.019-0.812 0.016c-0.271-0.002-0.542-0.013-0.812-0.031s-0.54-0.045-0.809-0.079c-0.269-0.034-0.536-0.076-0.803-0.126s-0.531-0.107-0.794-0.172c-0.263-0.065-0.524-0.138-0.782-0.218s-0.515-0.168-0.768-0.264c-0.254-0.096-0.504-0.198-0.752-0.308s-0.492-0.227-0.732-0.352c-0.241-0.124-0.478-0.256-0.711-0.394s-0.462-0.283-0.686-0.435c-0.225-0.151-0.445-0.309-0.66-0.474s-0.426-0.335-0.631-0.512c-0.205-0.177-0.405-0.359-0.6-0.548s-0.384-0.382-0.567-0.582c-0.183-0.2-0.361-0.404-0.532-0.614s-0.337-0.424-0.495-0.644c-0.159-0.22-0.311-0.443-0.457-0.672s-0.285-0.461-0.417-0.697c-0.132-0.237-0.257-0.477-0.375-0.72s-0.229-0.491-0.333-0.741c-0.104-0.25-0.2-0.503-0.289-0.759s-0.17-0.514-0.244-0.775c-0.074-0.261-0.14-0.523-0.198-0.788s-0.109-0.531-0.152-0.798c-0.043-0.267-0.078-0.536-0.105-0.806s-0.046-0.54-0.058-0.81c-0.011-0.271-0.015-0.541-0.010-0.812s0.017-0.541 0.037-0.812c0.020-0.27 0.048-0.539 0.084-0.808s0.080-0.536 0.131-0.802c0.052-0.266 0.111-0.53 0.178-0.793s0.142-0.523 0.224-0.781c0.082-0.258 0.172-0.514 0.269-0.767s0.202-0.503 0.314-0.749c0.112-0.247 0.231-0.49 0.357-0.73s0.259-0.476 0.399-0.708c0.14-0.232 0.286-0.46 0.439-0.683s0.313-0.442 0.479-0.656c0.166-0.214 0.338-0.423 0.516-0.627s0.362-0.403 0.552-0.596c0.19-0.193 0.385-0.381 0.586-0.563s0.407-0.358 0.618-0.528 0.427-0.333 0.647-0.491c0.22-0.157 0.445-0.308 0.675-0.452s0.463-0.281 0.7-0.412c0.237-0.131 0.478-0.254 0.723-0.37s0.492-0.226 0.743-0.327c0.251-0.102 0.505-0.196 0.761-0.283s0.515-0.167 0.777-0.239c0.261-0.072 0.524-0.136 0.789-0.193s0.531-0.105 0.799-0.146 0.536-0.074 0.806-0.099c0.27-0.025 0.54-0.043 0.811-0.052s0.542-0.011 0.812-0.005c0.271 0.006 0.541 0.021 0.811 0.043s0.539 0.052 0.807 0.090c0.268 0.038 0.535 0.084 0.801 0.137s0.529 0.115 0.791 0.184c0.262 0.069 0.522 0.145 0.779 0.23s0.512 0.176 0.765 0.275c0.252 0.099 0.501 0.205 0.747 0.319s0.488 0.234 0.727 0.362c0.239 0.128 0.474 0.262 0.705 0.404s0.458 0.29 0.68 0.444c0.029 0.020 0.058 0.039 0.089 0.056s0.062 0.033 0.094 0.047c0.032 0.014 0.065 0.026 0.098 0.037s0.067 0.020 0.101 0.028c0.034 0.007 0.069 0.013 0.103 0.017s0.070 0.006 0.105 0.007c0.035 0.001 0.070-0 0.105-0.003s0.070-0.007 0.104-0.014c0.035-0.006 0.069-0.014 0.102-0.024s0.067-0.021 0.099-0.033c0.033-0.013 0.065-0.027 0.096-0.043s0.062-0.033 0.091-0.052c0.030-0.019 0.058-0.039 0.086-0.061s0.054-0.045 0.079-0.069c0.025-0.024 0.049-0.050 0.072-0.076s0.044-0.054 0.064-0.083c0.020-0.029 0.039-0.058 0.056-0.089s0.033-0.062 0.047-0.094c0.014-0.032 0.027-0.065 0.037-0.098s0.020-0.067 0.027-0.101c0.008-0.034 0.013-0.069 0.017-0.103s0.007-0.070 0.007-0.104-0-0.070-0.003-0.105c-0.003-0.035-0.007-0.070-0.013-0.104s-0.014-0.068-0.023-0.102c-0.009-0.034-0.021-0.067-0.033-0.099s-0.027-0.064-0.043-0.096c-0.016-0.031-0.033-0.062-0.052-0.091s-0.039-0.058-0.061-0.086c-0.022-0.028-0.045-0.054-0.069-0.079s-0.050-0.049-0.076-0.072c-0.027-0.023-0.054-0.044-0.083-0.064-0.256-0.178-0.517-0.348-0.783-0.511s-0.536-0.317-0.811-0.464-0.554-0.285-0.837-0.416c-0.283-0.131-0.57-0.253-0.86-0.366s-0.583-0.219-0.88-0.315c-0.296-0.097-0.595-0.184-0.897-0.264s-0.605-0.149-0.91-0.211c-0.306-0.061-0.613-0.114-0.921-0.157s-0.618-0.078-0.929-0.103c-0.311-0.025-0.622-0.042-0.933-0.049s-0.623-0.005-0.935 0.006c-0.312 0.011-0.622 0.031-0.933 0.060s-0.619 0.067-0.928 0.115c-0.308 0.047-0.615 0.104-0.919 0.169s-0.607 0.139-0.908 0.222c-0.3 0.083-0.598 0.174-0.893 0.275s-0.587 0.209-0.876 0.326c-0.289 0.117-0.574 0.243-0.855 0.377s-0.559 0.276-0.832 0.426c-0.273 0.15-0.542 0.308-0.805 0.474s-0.523 0.34-0.776 0.52c-0.254 0.181-0.502 0.369-0.745 0.565s-0.48 0.398-0.71 0.607c-0.231 0.209-0.455 0.425-0.674 0.648s-0.43 0.451-0.635 0.686-0.403 0.475-0.594 0.722c-0.191 0.247-0.374 0.498-0.55 0.755s-0.345 0.519-0.505 0.786c-0.161 0.267-0.314 0.538-0.459 0.814s-0.282 0.556-0.41 0.84c-0.129 0.284-0.249 0.571-0.361 0.862s-0.215 0.585-0.31 0.882c-0.095 0.297-0.181 0.596-0.258 0.898s-0.145 0.606-0.205 0.912c-0.059 0.306-0.11 0.614-0.151 0.922s-0.074 0.619-0.097 0.93c-0.023 0.311-0.037 0.622-0.042 0.934s-0.001 0.623 0.012 0.935 0.035 0.622 0.067 0.932c0.031 0.31 0.071 0.619 0.121 0.927s0.108 0.614 0.175 0.918c0.067 0.304 0.143 0.606 0.228 0.906s0.178 0.597 0.281 0.891c0.102 0.295 0.213 0.586 0.332 0.874s0.247 0.572 0.383 0.853c0.136 0.28 0.28 0.557 0.432 0.829s0.312 0.539 0.479 0.802 0.343 0.52 0.525 0.773c0.183 0.252 0.373 0.499 0.57 0.741s0.401 0.477 0.612 0.706c0.211 0.23 0.428 0.453 0.652 0.67s0.454 0.427 0.69 0.63c0.236 0.203 0.478 0.4 0.726 0.589s0.501 0.371 0.759 0.545c0.258 0.174 0.522 0.341 0.79 0.5s0.54 0.31 0.817 0.453c0.277 0.143 0.558 0.278 0.842 0.405s0.573 0.245 0.865 0.355c0.292 0.11 0.586 0.211 0.884 0.304s0.598 0.177 0.9 0.252c0.302 0.075 0.607 0.141 0.913 0.199s0.614 0.106 0.923 0.145c0.309 0.039 0.619 0.070 0.93 0.091s0.622 0.033 0.934 0.036 0.623-0.003 0.934-0.018c0.311-0.015 0.622-0.039 0.932-0.073s0.618-0.076 0.926-0.127c0.307-0.051 0.613-0.112 0.917-0.181s0.606-0.147 0.905-0.234c0.299-0.087 0.596-0.182 0.89-0.287s0.584-0.217 0.871-0.338c0.287-0.121 0.571-0.251 0.85-0.388s0.555-0.283 0.826-0.437c0.271-0.154 0.537-0.315 0.799-0.485s0.518-0.346 0.769-0.531c0.251-0.184 0.497-0.376 0.737-0.575s0.474-0.404 0.702-0.617c0.228-0.212 0.45-0.431 0.665-0.657s0.424-0.457 0.626-0.694c0.202-0.238 0.396-0.481 0.584-0.73s0.368-0.503 0.54-0.763c0.173-0.259 0.338-0.524 0.495-0.793s0.307-0.543 0.448-0.82c0.141-0.278 0.274-0.559 0.399-0.845s0.241-0.575 0.349-0.867c0.108-0.292 0.207-0.588 0.298-0.886s0.173-0.599 0.246-0.902c0.073-0.303 0.137-0.608 0.193-0.914s0.102-0.615 0.139-0.924c0.037-0.309 0.065-0.62 0.085-0.931s0.029-0.622 0.030-0.934c0.001-0.312-0.007-0.623-0.025-0.934s-0.044-0.622-0.079-0.931c-0.035-0.31-0.080-0.618-0.133-0.925s-0.116-0.612-0.187-0.916c-0.071-0.303-0.151-0.605-0.24-0.903z"></path>
            <path fill="#307d3c" style="fill: var(--color1, #307d3c)" d="M9.481 15.408c-0.025-0.024-0.051-0.047-0.078-0.069s-0.055-0.042-0.084-0.061c-0.029-0.019-0.059-0.036-0.089-0.052s-0.062-0.030-0.094-0.043c-0.032-0.013-0.065-0.024-0.098-0.034s-0.066-0.018-0.1-0.024c-0.034-0.006-0.068-0.011-0.102-0.014s-0.069-0.005-0.103-0.004c-0.034 0-0.069 0.002-0.103 0.006s-0.068 0.009-0.102 0.016c-0.034 0.007-0.067 0.016-0.1 0.026s-0.065 0.022-0.097 0.036c-0.032 0.013-0.063 0.028-0.093 0.045s-0.060 0.035-0.088 0.054c-0.029 0.019-0.056 0.040-0.083 0.062s-0.052 0.046-0.076 0.070c-0.024 0.025-0.048 0.050-0.069 0.077s-0.042 0.055-0.062 0.084-0.037 0.059-0.053 0.089c-0.016 0.031-0.031 0.062-0.044 0.094s-0.025 0.065-0.035 0.098c-0.010 0.033-0.019 0.067-0.026 0.101s-0.012 0.068-0.016 0.103c-0.004 0.035-0.006 0.069-0.006 0.104s0.001 0.070 0.004 0.104c0.003 0.035 0.008 0.069 0.014 0.103s0.014 0.068 0.024 0.101c0.010 0.033 0.021 0.066 0.033 0.099s0.027 0.064 0.043 0.095c0.016 0.031 0.033 0.061 0.052 0.090s0.039 0.057 0.060 0.085c0.021 0.027 0.044 0.053 0.068 0.078l5.314 5.372c0.025 0.025 0.050 0.049 0.077 0.071s0.055 0.043 0.084 0.063c0.029 0.020 0.059 0.038 0.089 0.054s0.062 0.032 0.094 0.045c0.032 0.014 0.065 0.025 0.098 0.036s0.067 0.019 0.101 0.026c0.034 0.007 0.068 0.012 0.103 0.015s0.069 0.005 0.104 0.005c0.035 0 0.070-0.002 0.104-0.005s0.069-0.009 0.103-0.015c0.034-0.007 0.068-0.015 0.101-0.026s0.066-0.022 0.098-0.036c0.032-0.013 0.064-0.028 0.094-0.045s0.060-0.035 0.089-0.054c0.029-0.020 0.057-0.040 0.084-0.063s0.053-0.046 0.077-0.071l14.347-14.505c0.024-0.025 0.047-0.051 0.068-0.078s0.041-0.056 0.060-0.085 0.036-0.059 0.052-0.090c0.016-0.031 0.030-0.063 0.043-0.095s0.024-0.065 0.033-0.099c0.010-0.034 0.018-0.067 0.024-0.101s0.011-0.069 0.014-0.103c0.003-0.035 0.004-0.069 0.004-0.104s-0.002-0.069-0.006-0.104c-0.004-0.035-0.009-0.069-0.016-0.103s-0.015-0.068-0.026-0.101c-0.010-0.033-0.022-0.066-0.035-0.098s-0.028-0.063-0.044-0.094c-0.016-0.031-0.034-0.060-0.053-0.089s-0.040-0.057-0.062-0.084c-0.022-0.027-0.045-0.053-0.069-0.077s-0.050-0.048-0.076-0.070c-0.027-0.022-0.054-0.043-0.083-0.062s-0.058-0.037-0.088-0.054c-0.030-0.016-0.061-0.032-0.093-0.045s-0.064-0.025-0.097-0.036c-0.033-0.010-0.066-0.019-0.1-0.026s-0.068-0.012-0.102-0.016c-0.034-0.004-0.069-0.006-0.103-0.006s-0.069 0.001-0.103 0.004c-0.034 0.003-0.068 0.008-0.102 0.014s-0.067 0.014-0.1 0.024c-0.033 0.010-0.066 0.021-0.098 0.034s-0.063 0.027-0.094 0.043-0.060 0.034-0.089 0.052c-0.029 0.019-0.057 0.039-0.084 0.061s-0.053 0.045-0.077 0.069l-13.596 13.745-4.562-4.612z"></path>
        </symbol>
    </defs>
</svg>
