<svg aria-hidden="true" style="position: absolute; width: 0; height: 0; overflow: hidden;" version="1.1"
     xmlns="http://www.w3.org/2000/svg" xmlns:xlink="http://www.w3.org/1999/xlink">
    <defs>
        <symbol id="mail" viewBox="0 0 31 32">
            <path d="M25.6 5.76h-20.48c-1.408 0-2.547 1.152-2.547 2.56l-0.013 15.36c0 1.408 1.152 2.56 2.56 2.56h20.48c1.408 0 2.56-1.152 2.56-2.56v-15.36c0-1.408-1.152-2.56-2.56-2.56zM25.6 10.88l-10.24 6.4-10.24-6.4v-2.56l10.24 6.4 10.24-6.4v2.56z"></path>
        </symbol>
        <symbol id="phone" viewBox="0 0 32 32">
            <path d="M8.030 14.297c2.133 3.983 5.57 7.234 9.763 9.275l3.259-3.096c0.4-0.38 0.993-0.507 1.511-0.338 1.659 0.521 3.452 0.802 5.289 0.802 0.815 0 1.481 0.633 1.481 1.407v4.912c0 0.774-0.667 1.407-1.481 1.407-13.911 0-25.185-10.71-25.185-23.926 0-0.774 0.667-1.407 1.481-1.407h5.185c0.815 0 1.481 0.633 1.481 1.407 0 1.759 0.296 3.448 0.844 5.024 0.163 0.493 0.044 1.041-0.37 1.436l-3.259 3.096z"></path>
        </symbol>
        <symbol id="location" viewBox="0 0 31 32">
            <path d="M15.36 15.424c-0.849 0-1.663-0.303-2.263-0.844s-0.937-1.273-0.937-2.036c0-0.764 0.337-1.496 0.937-2.036s1.414-0.844 2.263-0.844 1.663 0.303 2.263 0.844c0.6 0.54 0.937 1.273 0.937 2.036 0 0.378-0.083 0.753-0.244 1.102s-0.397 0.667-0.694 0.934c-0.297 0.267-0.65 0.48-1.038 0.624s-0.804 0.219-1.225 0.219zM15.36 4.48c-2.376 0-4.655 0.85-6.336 2.362s-2.624 3.563-2.624 5.702c0 6.048 8.96 14.976 8.96 14.976s8.96-8.928 8.96-14.976c0-2.139-0.944-4.19-2.624-5.702s-3.959-2.362-6.336-2.362z"></path>
        </symbol>
        <symbol id="basket" viewBox="0 0 33 32">
            <path d="M32.39 9.697c-0.092-0.115-0.214-0.209-0.357-0.274s-0.3-0.099-0.46-0.099h-21.33l-1.615-4.901c-0.633-1.93-2.138-2.138-2.755-2.138h-4.305c-0.552 0-0.998 0.393-0.998 0.878s0.447 0.878 0.998 0.878h4.305c0.136 0 0.552 0 0.835 0.862l5.554 17.966c0.121 0.379 0.513 0.641 0.961 0.641h13.567c0.421 0 0.797-0.232 0.939-0.581l4.782-12.43c0.11-0.269 0.064-0.569-0.122-0.802v0zM26.089 21.755h-12.107l-3.177-10.674h19.35l-4.066 10.674zM24.11 25.291c-1.388 0-2.513 0.99-2.513 2.211s1.125 2.211 2.513 2.211c1.388 0 2.513-0.99 2.513-2.211s-1.125-2.211-2.513-2.211zM15.064 25.291c-1.388 0-2.513 0.99-2.513 2.211s1.125 2.211 2.513 2.211c1.388 0 2.513-0.99 2.513-2.211s-1.125-2.211-2.513-2.211z"></path>
        </symbol>
        <symbol id="instagram" viewBox="0 0 32 32">
            <path d="M17.553 0.889c1.7 0.005 2.563 0.014 3.308 0.035l0.293 0.011c0.338 0.012 0.672 0.027 1.076 0.045 1.608 0.076 2.705 0.329 3.667 0.703 0.997 0.384 1.837 0.904 2.678 1.742 0.768 0.755 1.363 1.669 1.742 2.678 0.373 0.963 0.627 2.060 0.703 3.669 0.018 0.402 0.033 0.736 0.045 1.076l0.009 0.293c0.023 0.743 0.032 1.606 0.035 3.306l0.002 1.127v1.98c0.004 1.102-0.008 2.204-0.035 3.306l-0.009 0.293c-0.012 0.34-0.027 0.674-0.045 1.076-0.076 1.609-0.332 2.705-0.704 3.669-0.378 1.009-0.973 1.923-1.742 2.678-0.756 0.768-1.669 1.363-2.678 1.742-0.962 0.373-2.059 0.627-3.667 0.703-0.359 0.017-0.717 0.032-1.076 0.045l-0.293 0.009c-0.745 0.021-1.608 0.032-3.308 0.035l-3.105 0.002c-1.103 0.004-2.205-0.008-3.308-0.035l-0.293-0.009c-0.359-0.014-0.717-0.029-1.076-0.047-1.608-0.076-2.705-0.329-3.669-0.703-1.008-0.379-1.922-0.973-2.676-1.742-0.769-0.755-1.364-1.669-1.744-2.678-0.373-0.962-0.627-2.060-0.703-3.669-0.017-0.358-0.032-0.717-0.045-1.076l-0.008-0.293c-0.028-1.102-0.040-2.204-0.038-3.306v-3.107c-0.004-1.102 0.007-2.204 0.033-3.306l0.011-0.293c0.012-0.34 0.027-0.674 0.045-1.076 0.076-1.609 0.329-2.705 0.703-3.669 0.379-1.010 0.976-1.924 1.747-2.678 0.754-0.768 1.667-1.363 2.675-1.742 0.964-0.373 2.060-0.627 3.669-0.703 0.402-0.018 0.737-0.033 1.076-0.045l0.293-0.009c1.102-0.027 2.204-0.038 3.306-0.035l3.107-0.001zM16 8.444c-2.004 0-3.925 0.796-5.342 2.213s-2.213 3.339-2.213 5.343 0.796 3.925 2.213 5.343c1.417 1.417 3.339 2.213 5.342 2.213s3.925-0.796 5.342-2.213c1.417-1.417 2.213-3.339 2.213-5.343s-0.796-3.925-2.213-5.343c-1.417-1.417-3.339-2.213-5.342-2.213zM16 11.466c0.595-0 1.185 0.117 1.735 0.345s1.050 0.562 1.471 0.982c0.421 0.421 0.755 0.921 0.983 1.471s0.345 1.139 0.345 1.735c0 0.595-0.117 1.185-0.345 1.735s-0.561 1.050-0.982 1.471c-0.421 0.421-0.921 0.755-1.471 0.983s-1.139 0.345-1.735 0.345c-1.202 0-2.355-0.478-3.205-1.328s-1.328-2.003-1.328-3.206 0.478-2.355 1.328-3.206c0.85-0.85 2.003-1.328 3.205-1.328zM23.935 6.178c-0.501 0-0.981 0.199-1.336 0.553s-0.553 0.835-0.553 1.336c0 0.501 0.199 0.981 0.553 1.336s0.835 0.553 1.336 0.553c0.501 0 0.981-0.199 1.336-0.553s0.553-0.835 0.553-1.336c0-0.501-0.199-0.981-0.553-1.336s-0.835-0.553-1.336-0.553z"></path>
        </symbol>
        <symbol id="facebook" viewBox="0 0 32 32">
            <path d="M31.111 16.038c0-8.362-6.77-15.149-15.111-15.149s-15.111 6.787-15.111 15.149c0 7.332 5.198 13.437 12.089 14.846v-10.301h-3.022v-4.545h3.022v-3.787c0-2.924 2.372-5.302 5.289-5.302h3.778v4.545h-3.022c-0.831 0-1.511 0.682-1.511 1.515v3.030h4.533v4.545h-4.533v10.529c7.631-0.757 13.6-7.211 13.6-15.073z"></path>
        </symbol>
        <symbol id="tiktok-accent" viewBox="0 0 32 32">
            <path d="M16 0.444c8.591 0 15.556 6.964 15.556 15.556s-6.964 15.556-15.556 15.556c-8.591 0-15.556-6.964-15.556-15.556s6.964-15.556 15.556-15.556z"></path>
            <path fill="#3F352C"
                  d="M20.172 10.201c-0.62-0.732-0.962-1.673-0.962-2.646h-2.803v11.635c-0.022 0.63-0.279 1.226-0.717 1.663s-1.023 0.682-1.632 0.682c-1.288 0-2.358-1.088-2.358-2.44 0-1.614 1.506-2.824 3.057-2.327v-2.965c-3.129-0.432-5.868 2.083-5.868 5.292 0 3.124 2.503 5.348 5.161 5.348 2.848 0 5.161-2.393 5.161-5.348v-5.902c1.137 0.844 2.501 1.297 3.9 1.295v-2.899c0 0-1.705 0.084-2.939-1.389z"></path>
        </symbol>
        <symbol id="tiktok-white" viewBox="0 0 32 32">
            <path d="M16 0.444c8.591 0 15.556 6.964 15.556 15.556s-6.964 15.556-15.556 15.556c-8.591 0-15.556-6.964-15.556-15.556s6.964-15.556 15.556-15.556z"></path>
            <path fill="#FFF"
                  d="M20.172 10.201c-0.62-0.732-0.962-1.673-0.962-2.646h-2.803v11.635c-0.022 0.63-0.279 1.226-0.717 1.663s-1.023 0.682-1.632 0.682c-1.288 0-2.358-1.088-2.358-2.44 0-1.614 1.506-2.824 3.057-2.327v-2.965c-3.129-0.432-5.868 2.083-5.868 5.292 0 3.124 2.503 5.348 5.161 5.348 2.848 0 5.161-2.393 5.161-5.348v-5.902c1.137 0.844 2.501 1.297 3.9 1.295v-2.899c0 0-1.705 0.084-2.939-1.389z"></path>
        </symbol>
        <symbol id="arrow-right-bottom" viewBox="0 0 32 32">
            <path d="M30.385 29.31c0 1.040-0.843 1.882-1.882 1.882h-16.941c-1.040 0-1.882-0.843-1.882-1.882s0.843-1.882 1.882-1.882h15.059v-15.059c0-1.040 0.843-1.882 1.882-1.882s1.882 0.843 1.882 1.882v16.941zM3.213 1.358l26.62 26.62-2.662 2.662-26.62-26.621 2.662-2.662z"></path>
        </symbol>
        <symbol id="caret-left" viewBox="0 0 32 32">
            <path fill="transparent" stroke-linejoin="miter" stroke-linecap="butt" stroke-miterlimit="4"
                  stroke-width="1.1852" d="M19.556 8.889l-7.704 7.111 7.704 7.111"></path>
        </symbol>
        <symbol id="caret-right" viewBox="0 0 32 32">
            <path fill="transparent" stroke-linejoin="miter" stroke-linecap="butt" stroke-miterlimit="4"
                  stroke-width="1.1852" d="M11.852 8.889l7.704 7.111-7.704 7.111"></path>
        </symbol>
        <symbol id="arrow-right" viewBox="0 0 72 32">
            <path d="M70.747 17.414c0.781-0.781 0.781-2.047 0-2.828l-12.728-12.728c-0.781-0.781-2.047-0.781-2.829 0s-0.781 2.047 0 2.828l11.314 11.314-11.314 11.314c-0.781 0.781-0.781 2.047 0 2.829s2.047 0.781 2.829 0l12.728-12.728zM0 18h69.333v-4h-69.333v4z"></path>
        </symbol>
        <symbol id="arrow-top" viewBox="0 0 19 32">
            <path d="M8.643 0.347c0.463-0.463 1.213-0.463 1.676 0l7.543 7.542c0.463 0.463 0.463 1.213 0 1.676s-1.213 0.463-1.676 0l-6.704-6.704-6.704 6.704c-0.463 0.463-1.213 0.463-1.676 0s-0.463-1.213 0-1.676l7.542-7.542zM8.296 32v-30.815h2.37v30.815h-2.37z"></path>
        </symbol>
        <symbol id="minus" viewBox="0 0 17 1">
            <line y1="0.5" x2="17" y2="0.5" stroke="black"/>
        </symbol>
        <symbol id="plus" viewBox="0 0 17 17">
            <line y1="8.5" x2="17" y2="8.5" stroke="black"/>
            <line x1="8.5" y1="17" x2="8.5" stroke="black"/>
        </symbol>
        <symbol id="close" viewBox="0 0 32 32">
            <path d="M4.163 29.333l-1.497-1.497 11.837-11.837-11.837-11.837 1.497-1.497 11.837 11.837 11.837-11.837 1.497 1.497-11.837 11.837 11.837 11.837-1.497 1.497-11.837-11.837-11.837 11.837z"></path>
        </symbol>
        <symbol id="arrow-right-small" viewBox="0 0 49 32">
            <path d="M48.442 17.509c0.833-0.833 0.833-2.184 0-3.017l-13.577-13.576c-0.833-0.833-2.184-0.833-3.017 0s-0.833 2.184 0 3.017l12.068 12.068-12.068 12.068c-0.833 0.833-0.833 2.184 0 3.017s2.184 0.833 3.017 0l13.577-13.576zM0 18.133h46.933v-4.267h-46.933v4.267z"></path>
        </symbol>
        <symbol id="filter" viewBox="0 0 33 32">
            <path fill="#bda18c" style="fill: var(--color1, transparent)" d="M0 0h33.185v32h-33.185v-32z"></path>
            <path fill="none" stroke="#000" style="stroke: var(--color2, #000)" stroke-linejoin="miter" stroke-linecap="round" stroke-miterlimit="10" stroke-width="1.1852" d="M30.815 15.999h-18.996M5.113 15.999h-2.743M5.113 15.999c0-0.897 0.353-1.757 0.982-2.391s1.481-0.99 2.37-0.99 1.742 0.356 2.37 0.99c0.629 0.634 0.982 1.494 0.982 2.391s-0.353 1.757-0.982 2.391c-0.629 0.634-1.481 0.99-2.37 0.99s-1.742-0.356-2.37-0.99c-0.629-0.634-0.982-1.494-0.982-2.391zM30.815 26.247h-8.838M21.977 26.247c0 0.897-0.354 1.758-0.983 2.392s-1.481 0.991-2.371 0.991c-0.889 0-1.741-0.358-2.37-0.992s-0.982-1.494-0.982-2.391M21.977 26.247c0-0.897-0.354-1.756-0.983-2.391s-1.481-0.99-2.371-0.99c-0.889 0-1.741 0.356-2.37 0.99s-0.982 1.494-0.982 2.391M15.272 26.247h-12.901M30.815 5.752h-4.774M19.336 5.752h-16.965M19.336 5.752c0-0.897 0.353-1.757 0.982-2.391s1.481-0.99 2.37-0.99c0.44 0 0.876 0.087 1.283 0.257s0.776 0.419 1.087 0.733c0.311 0.314 0.558 0.687 0.727 1.097s0.255 0.85 0.255 1.294c0 0.444-0.087 0.884-0.255 1.294s-0.415 0.783-0.727 1.097c-0.311 0.314-0.681 0.563-1.087 0.733s-0.843 0.257-1.283 0.257c-0.889 0-1.741-0.356-2.37-0.99s-0.982-1.494-0.982-2.391z"></path>
        </symbol>
        <symbol id="arrow-down" viewBox="0 0 52 32">
            <path fill="none" stroke="#fff" style="stroke: var(--color1, #fff)" stroke-linejoin="miter" stroke-linecap="butt" stroke-miterlimit="4" stroke-width="2.9091" d="M49.455 2.909l-23.273 26.182-23.273-26.182"></path>
        </symbol>
    </defs>
</svg>
